<svg width="132" height="30" viewBox="0 0 277 58" fill="none" xmlns="http://www.w3.org/2000/svg">
<path fill-rule="evenodd" clip-rule="evenodd" d="M168.783 48.4409H177.133L167.493 34.1688L176.807 22.3202H172.933L165.715 31.53L159.574 22.3202H151.12L160.384 36.0537L150.744 48.4409H154.565L162.213 38.7468L168.783 48.4409Z" fill="black"/>
<path fill-rule="evenodd" clip-rule="evenodd" d="M141.494 48.7121C144.372 48.7492 147.244 48.4601 150.057 47.8504V45.5347C147.746 45.9478 145.402 46.1461 143.055 46.1271C136.054 46.1271 133.845 44.5111 133.684 36.8096H151.297C151.397 36.1687 151.45 35.5212 151.455 34.8724C151.455 26.0388 146.771 21.8932 138.962 21.8932C131.745 21.8932 126.09 26.202 126.09 35.3575C126.091 45.9636 132.393 48.7121 141.494 48.7121ZM139.017 24.4767C143.218 24.4767 144.08 27.0617 144.241 34.3862H133.685C133.793 27.0059 135.032 24.4767 139.017 24.4767Z" fill="black"/>
<path d="M122.049 48.4409H114.294V8.69442H122.049V48.4409Z" fill="black"/>
<path fill-rule="evenodd" clip-rule="evenodd" d="M94.6486 48.8717C97.7721 48.8717 100.305 48.0639 101.973 46.9345V48.4409H109.244V30.5064C109.244 24.2055 105.15 22.051 96.8027 22.051C93.9313 22.0859 91.0676 22.3561 88.2404 22.8588V25.1749C90.4892 24.8639 92.7561 24.702 95.0263 24.6902C99.4431 24.6902 101.92 25.3903 101.92 29.914V32.8225H95.2402C88.3465 32.8225 85.0072 35.5152 85.0072 40.901C85.0072 45.5867 88.1319 48.8717 94.6486 48.8717ZM97.449 46.179C93.7866 46.179 92.6018 44.6708 92.6018 40.5225C92.6018 36.483 93.7866 34.9751 97.6106 34.9751H101.919V45.4235C100.485 45.9366 98.9722 46.1923 97.449 46.179Z" fill="black"/>
<path d="M75.7026 48.4409H67.9469L67.9461 22.3191H75.1641V24.3659C76.9955 22.8576 79.3651 22.2114 82.2732 22.2114C83.3063 22.237 84.3346 22.3633 85.3432 22.5883V25.0679C84.4259 25.0141 83.4575 25.0141 82.489 25.0141C80.1918 25.0032 77.905 25.3296 75.7026 25.9827V48.4409Z" fill="black"/>
<path fill-rule="evenodd" clip-rule="evenodd" d="M51.2849 48.8717C60.1712 48.8717 64.9645 43.6475 64.9645 35.4075C64.9645 27.1675 60.1173 21.8894 51.2849 21.8894C42.4525 21.8894 37.6591 27.1675 37.6591 35.4075C37.6587 43.7552 42.3448 48.8717 51.2849 48.8717ZM51.2849 46.3406C46.9762 46.3406 45.4683 42.9474 45.4683 35.4075C45.4683 27.8137 46.9762 24.4748 51.2849 24.4748C55.5936 24.4748 57.1015 27.8137 57.1015 35.4075C57.1011 42.9474 55.5928 46.3406 51.2849 46.3406Z" fill="black"/>
<path d="M34.7689 47.9562C30.5071 48.5774 26.2035 48.8655 21.897 48.8179C8.80857 48.8179 0.892822 43.5937 0.892822 28.5677C0.892822 14.1879 8.86399 8.37129 21.8432 8.37129C25.7603 8.39106 29.6692 8.73341 33.5302 9.39489V11.8183C30.3131 11.4243 27.0767 11.2085 23.8358 11.1721C12.0952 11.1721 9.18672 15.2634 9.18672 28.5138C9.18672 41.8165 12.4722 45.9098 22.7587 45.9098C24.2131 45.9098 25.721 45.8559 27.1212 45.7482V29.3755H19.3659V26.6828H34.7689V47.9562Z" fill="black"/>
<path d="M233.911 9.47759L201.724 9.47543C200.341 9.47525 199.064 10.2127 198.373 11.4099L189.817 26.2431C188.895 27.8391 188.895 29.8055 189.817 31.4015L198.397 46.2591C199.088 47.456 200.365 48.1933 201.747 48.1935L211.528 48.1935L211.546 48.1935C211.9 48.1981 212.185 48.4859 212.185 48.8403C212.185 48.9602 212.152 49.0725 212.095 49.1688L208.558 55.2933C208.062 56.153 208.682 57.2277 209.675 57.2277L223.095 57.2272C224.477 57.2272 225.755 56.4897 226.446 55.2927L230.009 49.1244C230.346 48.5711 230.953 48.2002 231.648 48.1938L263.571 48.1935C265.414 48.1935 267.117 47.2103 268.038 45.6142L276.611 30.7689C277.107 29.9092 276.487 28.8345 275.494 28.8345C268.349 28.8345 264.496 28.8347 260.637 28.835C256.904 28.8353 253.166 28.8356 246.439 28.8356C245.977 28.8356 245.544 29.0817 245.313 29.4811L243.872 31.9785C243.686 32.3012 243.919 32.7044 244.291 32.7044H255.442C256.368 32.7471 256.945 33.7321 256.538 34.5587L251.912 42.566C251.205 43.6744 249.985 44.3217 248.66 44.3217H217.376C216.026 44.3217 214.776 43.618 214.075 42.4695L207.689 31.4044C206.767 29.8083 206.767 27.842 207.689 26.2459L214.114 15.1171C214.824 14.0179 216.046 13.348 217.363 13.348L248.677 13.3457C250.002 13.3457 251.222 13.993 251.929 15.1014L255.767 21.7375C256.458 22.9345 257.735 23.6719 259.117 23.6721L272.527 23.6725C273.52 23.6725 274.141 22.5978 273.644 21.7381L268.054 12.0589C267.133 10.4628 265.43 9.47958 263.587 9.47958L254.019 9.47894C254.015 9.47899 254.012 9.47859 254.009 9.47859C253.651 9.47859 253.362 9.18899 253.362 8.83174C253.362 8.72009 253.39 8.61503 253.44 8.52337L256.989 2.37706C257.486 1.5173 256.865 0.4426 255.872 0.442627L243.198 0.443114C241.355 0.443163 239.652 1.42637 238.731 3.02238L235.58 8.47755C235.253 9.06615 234.629 9.46704 233.911 9.47759Z" fill="black"/>
<path d="M217.462 40.3889C217.125 40.9727 217.547 41.7024 218.221 41.7024H233.208C234.042 41.7024 234.813 41.2573 235.23 40.5349L248.627 17.3311C248.964 16.7474 248.543 16.0177 247.868 16.0177H232.881C232.047 16.0177 231.276 16.4627 230.859 17.1852L217.462 40.3889Z" fill="black"/>
<path d="M189.126 28.8352C189.128 29.7215 189.358 30.6074 189.817 31.4015L198.397 46.2591C199.088 47.456 200.365 48.1933 201.747 48.1935L211.528 48.1935L211.546 48.1935C211.9 48.1981 212.185 48.4859 212.185 48.8403C212.185 48.9602 212.152 49.0725 212.095 49.1688L208.558 55.2933C208.062 56.153 208.682 57.2277 209.675 57.2277L223.095 57.2272C224.477 57.2272 225.755 56.4897 226.446 55.2927L230.009 49.1244C230.346 48.5711 230.953 48.2002 231.648 48.1938L263.571 48.1935C265.414 48.1935 267.117 47.2103 268.038 45.6142L276.611 30.7689C277.1 29.9219 276.505 28.8662 275.538 28.8352H258.437C255.338 28.8354 251.858 28.8356 246.439 28.8356C245.977 28.8356 245.544 29.0817 245.313 29.4811L243.872 31.9785C243.686 32.3012 243.919 32.7044 244.291 32.7044H255.442C256.368 32.7471 256.945 33.7321 256.538 34.5587L251.912 42.566C251.205 43.6744 249.985 44.3217 248.66 44.3217H217.376C216.026 44.3217 214.776 43.618 214.075 42.4695L207.689 31.4044C207.23 30.6093 206.999 29.7224 206.998 28.8352H189.126Z" fill="black"/>
<path d="M224.133 28.8352L217.462 40.3889C217.125 40.9727 217.547 41.7024 218.221 41.7024H233.208C234.042 41.7024 234.813 41.2573 235.23 40.5349L241.985 28.8352H224.133Z" fill="black"/>
</svg>
