<svg width="201" height="186" viewBox="0 0 201 186" fill="none" xmlns="http://www.w3.org/2000/svg">
<path fill-rule="evenodd" clip-rule="evenodd" d="M183.935 184.981H192.876L182.554 169.698L192.528 157.01H188.379L180.649 166.872L174.073 157.01H165.02L174.941 171.716L164.618 184.981H168.709L176.899 174.6L183.935 184.981Z" fill="white"/>
<path fill-rule="evenodd" clip-rule="evenodd" d="M154.713 185.272C157.794 185.311 160.87 185.002 163.882 184.349V181.869C161.407 182.312 158.897 182.524 156.384 182.504C148.886 182.504 146.521 180.773 146.348 172.526H165.209C165.317 171.84 165.374 171.146 165.379 170.451C165.379 160.992 160.363 156.553 152.001 156.553C144.272 156.553 138.217 161.167 138.217 170.971C138.218 182.328 144.966 185.272 154.713 185.272ZM152.06 159.319C156.559 159.319 157.481 162.087 157.654 169.931H146.35C146.465 162.028 147.792 159.319 152.06 159.319Z" fill="white"/>
<path d="M133.89 184.981H125.585V142.419H133.89V184.981Z" fill="white"/>
<path fill-rule="evenodd" clip-rule="evenodd" d="M104.548 185.443C107.892 185.443 110.605 184.578 112.391 183.368V184.981H120.177V165.776C120.177 159.029 115.794 156.722 106.854 156.722C103.78 156.759 100.713 157.048 97.6854 157.587V160.067C100.094 159.734 102.521 159.56 104.952 159.548C109.682 159.548 112.334 160.297 112.334 165.142V168.256H105.181C97.7991 168.256 94.2232 171.14 94.2232 176.907C94.2232 181.925 97.5692 185.443 104.548 185.443ZM107.547 182.559C103.625 182.559 102.356 180.944 102.356 176.502C102.356 172.176 103.625 170.561 107.72 170.561H112.334V181.75C110.798 182.299 109.178 182.573 107.547 182.559Z" fill="white"/>
<path d="M84.2594 184.981H75.9541L75.9533 157.009H83.6827V159.201C85.6438 157.585 88.1813 156.893 91.2954 156.893C92.4018 156.921 93.5029 157.056 94.583 157.297V159.952C93.6007 159.895 92.5637 159.895 91.5266 159.895C89.0666 159.883 86.6178 160.232 84.2594 160.932V184.981Z" fill="white"/>
<path fill-rule="evenodd" clip-rule="evenodd" d="M58.1116 185.443C67.6275 185.443 72.7605 179.848 72.7605 171.024C72.7605 162.201 67.5698 156.549 58.1116 156.549C48.6534 156.549 43.5203 162.201 43.5203 171.024C43.5199 179.964 48.538 185.443 58.1116 185.443ZM58.1116 182.732C53.4976 182.732 51.8828 179.099 51.8828 171.024C51.8828 162.893 53.4976 159.317 58.1116 159.317C62.7256 159.317 64.3403 162.893 64.3403 171.024C64.3399 179.099 62.7247 182.732 58.1116 182.732Z" fill="white"/>
<path d="M40.4254 184.462C35.8617 185.127 31.2531 185.436 26.6415 185.385C12.6257 185.385 4.14911 179.791 4.14911 163.7C4.14911 148.301 12.685 142.073 26.5838 142.073C30.7786 142.094 34.9644 142.46 39.0989 143.169V145.764C35.6539 145.342 32.1882 145.111 28.7176 145.072C16.1452 145.072 13.0307 149.453 13.0307 163.642C13.0307 177.887 16.5489 182.271 27.5642 182.271C29.1217 182.271 30.7364 182.213 32.2359 182.098V164.565H23.931V161.682H40.4254V184.462Z" fill="white"/>
<path d="M103.018 20.6137L29.5822 20.6087C26.4282 20.6083 23.5137 22.2908 21.9367 25.0222L2.41614 58.8648C0.313765 62.5063 0.31376 66.9926 2.41613 70.6341L21.9919 104.532C23.5685 107.263 26.482 108.945 29.6352 108.946L51.9508 108.946L51.9932 108.946C52.7993 108.956 53.4496 109.613 53.4496 110.421C53.4496 110.695 53.3752 110.951 53.2454 111.171L45.175 125.144C44.0425 127.106 45.4582 129.558 47.7232 129.558L78.3423 129.556C81.4958 129.556 84.4097 127.874 85.9865 125.143L94.1154 111.07C94.8862 109.807 96.2712 108.961 97.855 108.946L170.688 108.946C174.894 108.946 178.779 106.702 180.881 103.061L200.441 69.1906C201.573 67.2292 200.158 64.7772 197.893 64.7772C181.591 64.7772 172.8 64.7778 163.995 64.7785C155.479 64.7791 146.95 64.7797 131.601 64.7797C130.549 64.7797 129.559 65.3412 129.033 66.2525L125.745 71.9505C125.32 72.6866 125.852 73.6066 126.702 73.6066H152.142C154.256 73.7039 155.573 75.9512 154.643 77.8372L144.09 96.1062C142.475 98.6351 139.693 100.112 136.67 100.112H65.2947C62.2139 100.112 59.3618 98.5064 57.7616 95.886L43.1915 70.6405C41.0891 66.9991 41.0891 62.5127 43.1915 58.8713L57.8508 33.4804C59.4709 30.9725 62.259 29.4442 65.2647 29.4442L136.708 29.4388C139.732 29.4388 142.514 30.9157 144.128 33.4446L152.884 48.5851C154.461 51.3162 157.374 52.9986 160.528 52.9989L191.124 53C193.389 53 194.805 50.548 193.672 48.5866L180.919 26.5031C178.816 22.8615 174.931 20.6182 170.726 20.6182L148.895 20.6167C148.888 20.6169 148.88 20.6159 148.872 20.6159C148.057 20.6159 147.396 19.9552 147.396 19.1401C147.396 18.8854 147.461 18.6457 147.575 18.4366L155.673 4.4135C156.805 2.45191 155.39 -6.08756e-05 153.125 1.13346e-09L124.208 0.00111063C120.003 0.00122365 116.118 2.24445 114.016 5.88581L106.827 18.332H106.826C106.081 19.6749 104.657 20.5896 103.018 20.6137Z" fill="white"/>
<path d="M65.4905 91.1392C64.7215 92.471 65.6827 94.1358 67.2206 94.1358H101.415C103.318 94.1358 105.077 93.1204 106.029 91.4722L136.594 38.5318C137.363 37.2 136.401 35.5352 134.864 35.5352H100.669C98.7659 35.5352 97.0072 36.5506 96.0556 38.1989L65.4905 91.1392Z" fill="white"/>
<path d="M0.839392 64.7788C0.84443 66.801 1.37001 68.8221 2.41613 70.6341L21.9919 104.532C23.5685 107.263 26.482 108.945 29.6352 108.946L51.9508 108.946L51.9932 108.946C52.7993 108.956 53.4496 109.613 53.4496 110.421C53.4496 110.695 53.3752 110.951 53.2454 111.171L45.175 125.144C44.0425 127.106 45.4582 129.558 47.7232 129.558L78.3423 129.556C81.4958 129.556 84.4097 127.874 85.9865 125.143L94.1154 111.07C94.8862 109.807 96.2712 108.961 97.855 108.946L170.688 108.946C174.894 108.946 178.779 106.702 180.881 103.061L200.441 69.1906C201.556 67.2583 200.199 64.8497 197.993 64.7788H158.976C151.905 64.7793 143.966 64.7797 131.601 64.7797C130.549 64.7797 129.559 65.3412 129.033 66.2525L125.745 71.9505C125.32 72.6866 125.852 73.6066 126.702 73.6066H152.142C154.256 73.7039 155.573 75.9512 154.643 77.8372L144.09 96.1062C142.475 98.6351 139.693 100.112 136.67 100.112H65.2947C62.2139 100.112 59.3618 98.5064 57.7616 95.886L43.1915 70.6405C42.1443 68.8267 41.6187 66.8031 41.6147 64.7788H0.839392Z" fill="white"/>
<path d="M80.7097 64.7788L65.4905 91.1392C64.7215 92.471 65.6827 94.1358 67.2206 94.1358H101.415C103.318 94.1358 105.077 93.1204 106.029 91.4722L121.44 64.7788H80.7097Z" fill="white"/>
</svg>
